<svg width="130" height="130" viewBox="0 0 130 130" fill="none" xmlns="http://www.w3.org/2000/svg">
<rect width="130" height="130" rx="32" fill="white"/>
<path d="M64.88 112.048C57.5413 112.048 50.4587 110.939 43.632 108.72C36.8907 106.501 31.0453 103.387 26.096 99.376L36.976 84.144C44.912 90.3733 54.1707 93.488 64.752 93.488C70.0427 93.488 74.224 92.592 77.296 90.8C80.4533 89.008 82.032 86.576 82.032 83.504C82.032 80.6027 80.5813 78.3413 77.68 76.72C74.7787 75.0987 70.1707 73.9467 63.856 73.264C51.6533 71.8987 42.6933 69.04 36.976 64.688C31.344 60.336 28.528 54.1067 28.528 46C28.528 40.5387 30.064 35.7173 33.136 31.536C36.208 27.3547 40.5173 24.112 46.064 21.808C51.6107 19.504 58.0107 18.352 65.264 18.352C71.4933 18.352 77.552 19.248 83.44 21.04C89.4133 22.832 94.6613 25.3493 99.184 28.592L89.328 43.312C82.3307 38.448 74.608 36.016 66.16 36.016C60.9547 36.016 56.7733 36.8693 53.616 38.576C50.544 40.2827 49.008 42.5867 49.008 45.488C49.008 48.304 50.3307 50.48 52.976 52.016C55.7067 53.552 60.2293 54.704 66.544 55.472C78.6613 56.8373 87.7067 59.8667 93.68 64.56C99.6533 69.168 102.64 75.5253 102.64 83.632C102.64 89.264 101.061 94.256 97.904 98.608C94.7467 102.875 90.3093 106.203 84.592 108.592C78.8747 110.896 72.304 112.048 64.88 112.048Z" fill="black"/>
</svg>
